<svg xmlns="http://www.w3.org/2000/svg" width="48" height="48" viewBox="0 0 48 48">
  <rect width="40" height="40" x="4" y="4" rx="4" fill="#fe640b"/>
  <path fill="#ffffff" fill-rule="evenodd" opacity="0.95" d="M16 11 H31 A3 3 0 0 1 34 14 V34 A3 3 0 0 1 31 37 H16 L8.5 24 Z M14.2 24 A2.3 2.3 0 1 0 14.2 23.999 Z"/>
  <rect width="14" height="14" x="28" y="28" rx="2.5" fill="#179299"/>
  <path fill="#ffffff" d="M 32 31.5 C 32 31.22 32.22 31 32.5 31 H 37.5 C 37.78 31 38 31.22 38 31.5 C 38 31.78 37.78 32 37.5 32 H 33.5 V 34.25 H 37 C 37.28 34.25 37.5 34.47 37.5 34.75 C 37.5 35.03 37.28 35.25 37 35.25 H 33.5 V 37.5 H 37.5 C 37.78 37.5 38 37.72 38 38 C 38 38.28 37.78 38.5 37.5 38.5 H 32.5 C 32.22 38.5 32 38.28 32 38 Z"/>
</svg>
